# xmcd
#
# Track frame offsets: 
#        150
#        18722
#        34357
#        53017
#        72547
#        91162
#        113079
#        127785
#        157642
#        173605
#        193407
#        250827
#
# Disc length: 4239 seconds
#
# Revision: 1
# Processed by: cddbd v1.5.2PL0 Copyright (c) Steve Scherf et al.
# Submitted via: ExactAudioCopy v1.0b4
#
DISCID=98108d0c
DTITLE=Jesse Cook - Free Fall
DYEAR=2000
DGENRE=Nuevo Flamenco
TTITLE0=Switchback
TTITLE1=Air
TTITLE2=Virtue
TTITLE3=Free Fall
TTITLE4=Paloma
TTITLE5=Incantation
TTITLE6=All that Remains
TTITLE7=On walks the Night
TTITLE8=Querido Amigo
TTITLE9=Viva
TTITLE10=Fall at your Feet
TTITLE11=Unknown Title
EXTD=
EXTT0=
EXTT1=
EXTT2=
EXTT3=
EXTT4=
EXTT5=
EXTT6=
EXTT7=
EXTT8=
EXTT9=
EXTT10=
EXTT11=
PLAYORDER=
